REM DIRINDEX 1\6,1\2\7,1\2\8,1\2\9,1\3\10,1\3\11,1\4\12,1\4\13,1\4\14,1\5\15,1\5\16,1\5\17
REM DIRNAME folder01,folder02,folder03,folder04,folder05,folder06,folder07,folder08,folder09,folder10,folder11,folder12,folder13,folder14,folder15,folder16,folder17
TITLE ""
FILE "P2Q_t2_0771-0788.mp3" MP3
  TRACK 01 AUDIO
    TITLE "7:cjc040_6145"
    INDEX 01 00:00:00
  TRACK 02 AUDIO
    TITLE "0:"
    INDEX 01 00:00:68
  TRACK 03 AUDIO
    TITLE "8:cjc040_6146"
    INDEX 01 00:01:42
  TRACK 04 AUDIO
    TITLE "0:"
    INDEX 01 00:04:13
  TRACK 05 AUDIO
    TITLE "9:cjc040_6147"
    INDEX 01 00:04:64
  TRACK 06 AUDIO
    TITLE "0:"
    INDEX 01 00:05:63
  TRACK 07 AUDIO
    TITLE "7:cjc040_6148"
    INDEX 01 00:07:33
  TRACK 08 AUDIO
    TITLE "0:"
    INDEX 01 00:08:28
  TRACK 09 AUDIO
    TITLE "8:cjc040_6149"
    INDEX 01 00:09:18
  TRACK 10 AUDIO
    TITLE "0:"
    INDEX 01 00:12:05
  TRACK 11 AUDIO
    TITLE "9:cjc040_6150"
    INDEX 01 00:12:58
  TRACK 12 AUDIO
    TITLE "0:"
    INDEX 01 00:13:55
  TRACK 13 AUDIO
    TITLE "7:cjc040_6151"
    INDEX 01 00:15:34
  TRACK 14 AUDIO
    TITLE "0:"
    INDEX 01 00:16:34
  TRACK 15 AUDIO
    TITLE "8:cjc040_6152"
    INDEX 01 00:17:16
  TRACK 16 AUDIO
    TITLE "0:"
    INDEX 01 00:18:66
  TRACK 17 AUDIO
    TITLE "9:cjc040_6153"
    INDEX 01 00:19:44
  TRACK 18 AUDIO
    TITLE "0:"
    INDEX 01 00:20:45
  TRACK 19 AUDIO
    TITLE "7:cjc040_6154"
    INDEX 01 00:22:27
  TRACK 20 AUDIO
    TITLE "0:"
    INDEX 01 00:23:40
  TRACK 21 AUDIO
    TITLE "8:cjc040_6155"
    INDEX 01 00:24:14
  TRACK 22 AUDIO
    TITLE "0:"
    INDEX 01 00:25:25
  TRACK 23 AUDIO
    TITLE "9:cjc040_6156"
    INDEX 01 00:26:03
  TRACK 24 AUDIO
    TITLE "0:"
    INDEX 01 00:27:10
  TRACK 25 AUDIO
    TITLE "7:cjc040_6157"
    INDEX 01 00:28:70
  TRACK 26 AUDIO
    TITLE "0:"
    INDEX 01 00:30:06
  TRACK 27 AUDIO
    TITLE "8:cjc040_6158"
    INDEX 01 00:30:57
  TRACK 28 AUDIO
    TITLE "0:"
    INDEX 01 00:32:15
  TRACK 29 AUDIO
    TITLE "9:cjc040_6159"
    INDEX 01 00:32:64
  TRACK 30 AUDIO
    TITLE "0:"
    INDEX 01 00:34:00
  TRACK 31 AUDIO
    TITLE "7:cjc040_6160"
    INDEX 01 00:35:59
  TRACK 32 AUDIO
    TITLE "0:"
    INDEX 01 00:37:05
  TRACK 33 AUDIO
    TITLE "8:cjc040_6161"
    INDEX 01 00:37:57
  TRACK 34 AUDIO
    TITLE "0:"
    INDEX 01 00:39:13
  TRACK 35 AUDIO
    TITLE "9:cjc040_6162"
    INDEX 01 00:39:72
  TRACK 36 AUDIO
    TITLE "0:"
    INDEX 01 00:41:16
  TRACK 37 AUDIO
    TITLE "7:cjc040_6163"
    INDEX 01 00:42:72
  TRACK 38 AUDIO
    TITLE "0:"
    INDEX 01 00:44:07
  TRACK 39 AUDIO
    TITLE "8:cjc040_6164"
    INDEX 01 00:44:60
  TRACK 40 AUDIO
    TITLE "0:"
    INDEX 01 00:46:09
  TRACK 41 AUDIO
    TITLE "9:cjc040_6165"
    INDEX 01 00:46:64
  TRACK 42 AUDIO
    TITLE "0:"
    INDEX 01 00:48:04
  TRACK 43 AUDIO
    TITLE "7:cjc040_6166"
    INDEX 01 00:49:57
  TRACK 44 AUDIO
    TITLE "0:"
    INDEX 01 00:51:01
  TRACK 45 AUDIO
    TITLE "8:cjc040_6167"
    INDEX 01 00:51:52
  TRACK 46 AUDIO
    TITLE "0:"
    INDEX 01 00:54:05
  TRACK 47 AUDIO
    TITLE "9:cjc040_6168"
    INDEX 01 00:54:58
  TRACK 48 AUDIO
    TITLE "0:"
    INDEX 01 00:55:73
  TRACK 49 AUDIO
    TITLE "7:cjc040_6169"
    INDEX 01 00:57:60
  TRACK 50 AUDIO
    TITLE "0:"
    INDEX 01 00:59:02
  TRACK 51 AUDIO
    TITLE "8:cjc040_6170"
    INDEX 01 00:59:59
  TRACK 52 AUDIO
    TITLE "0:"
    INDEX 01 01:02:50
  TRACK 53 AUDIO
    TITLE "9:cjc040_6171"
    INDEX 01 01:03:26
  TRACK 54 AUDIO
    TITLE "0:"
    INDEX 01 01:04:54
  TRACK 55 AUDIO
    TITLE "7:cjc040_6172"
    INDEX 01 01:06:42
  TRACK 56 AUDIO
    TITLE "0:"
    INDEX 01 01:07:45
  TRACK 57 AUDIO
    TITLE "8:cjc040_6173"
    INDEX 01 01:08:25
  TRACK 58 AUDIO
    TITLE "0:"
    INDEX 01 01:09:24
  TRACK 59 AUDIO
    TITLE "9:cjc040_6174"
    INDEX 01 01:10:06
  TRACK 60 AUDIO
    TITLE "0:"
    INDEX 01 01:11:13
  TRACK 61 AUDIO
    TITLE "7:cjc040_6175"
    INDEX 01 01:12:70
  TRACK 62 AUDIO
    TITLE "0:"
    INDEX 01 01:14:04
  TRACK 63 AUDIO
    TITLE "8:cjc040_6176"
    INDEX 01 01:14:65
  TRACK 64 AUDIO
    TITLE "0:"
    INDEX 01 01:16:26
  TRACK 65 AUDIO
    TITLE "9:cjc040_6177"
    INDEX 01 01:17:02
  TRACK 66 AUDIO
    TITLE "0:"
    INDEX 01 01:18:19
  TRACK 67 AUDIO
    TITLE "7:cjc040_6178"
    INDEX 01 01:20:00
  TRACK 68 AUDIO
    TITLE "0:"
    INDEX 01 01:21:23
  TRACK 69 AUDIO
    TITLE "8:cjc040_6179"
    INDEX 01 01:21:69
  TRACK 70 AUDIO
    TITLE "0:"
    INDEX 01 01:23:36
  TRACK 71 AUDIO
    TITLE "9:cjc040_6180"
    INDEX 01 01:24:14
  TRACK 72 AUDIO
    TITLE "0:"
    INDEX 01 01:25:37
  TRACK 73 AUDIO
    TITLE "7:cjc040_6181"
    INDEX 01 01:27:16
  TRACK 74 AUDIO
    TITLE "0:"
    INDEX 01 01:28:29
  TRACK 75 AUDIO
    TITLE "8:cjc040_6182"
    INDEX 01 01:29:11
  TRACK 76 AUDIO
    TITLE "0:"
    INDEX 01 01:31:51
  TRACK 77 AUDIO
    TITLE "9:cjc040_6183"
    INDEX 01 01:32:31
  TRACK 78 AUDIO
    TITLE "0:"
    INDEX 01 01:33:48
  TRACK 79 AUDIO
    TITLE "7:cjc040_6184"
    INDEX 01 01:35:29
  TRACK 80 AUDIO
    TITLE "0:"
    INDEX 01 01:36:35
  TRACK 81 AUDIO
    TITLE "8:cjc040_6185"
    INDEX 01 01:37:11
  TRACK 82 AUDIO
    TITLE "0:"
    INDEX 01 01:38:32
  TRACK 83 AUDIO
    TITLE "9:cjc040_6186"
    INDEX 01 01:39:12
  TRACK 84 AUDIO
    TITLE "0:"
    INDEX 01 01:40:17
  TRACK 85 AUDIO
    TITLE "7:cjc040_6187"
    INDEX 01 01:41:69
  TRACK 86 AUDIO
    TITLE "0:"
    INDEX 01 01:43:35
  TRACK 87 AUDIO
    TITLE "8:cjc040_6188"
    INDEX 01 01:44:15
  TRACK 88 AUDIO
    TITLE "0:"
    INDEX 01 01:46:72
  TRACK 89 AUDIO
    TITLE "9:cjc040_6189"
    INDEX 01 01:47:50
  TRACK 90 AUDIO
    TITLE "0:"
    INDEX 01 01:49:20
  TRACK 91 AUDIO
    TITLE "7:cjc040_6190"
    INDEX 01 01:51:07
  TRACK 92 AUDIO
    TITLE "0:"
    INDEX 01 01:52:22
  TRACK 93 AUDIO
    TITLE "8:cjc040_6191"
    INDEX 01 01:53:04
  TRACK 94 AUDIO
    TITLE "0:"
    INDEX 01 01:55:65
  TRACK 95 AUDIO
    TITLE "9:cjc040_6192"
    INDEX 01 01:56:39
  TRACK 96 AUDIO
    TITLE "0:"
    INDEX 01 01:57:57
  TRACK 97 AUDIO
    TITLE "7:cjc040_6193"
    INDEX 01 01:59:34
  TRACK 98 AUDIO
    TITLE "0:"
    INDEX 01 02:00:45
  TRACK 99 AUDIO
    TITLE "8:cjc040_6194"
    INDEX 01 02:01:27
  TRACK 100 AUDIO
    TITLE "0:"
    INDEX 01 02:04:31
  TRACK 101 AUDIO
    TITLE "9:cjc040_6195"
    INDEX 01 02:05:07
  TRACK 102 AUDIO
    TITLE "0:"
    INDEX 01 02:06:24
  TRACK 103 AUDIO
    TITLE "7:cjc040_6196"
    INDEX 01 02:08:05
  TRACK 104 AUDIO
    TITLE "0:"
    INDEX 01 02:09:21
  TRACK 105 AUDIO
    TITLE "8:cjc040_6197"
    INDEX 01 02:10:00
  TRACK 106 AUDIO
    TITLE "0:"
    INDEX 01 02:11:37
  TRACK 107 AUDIO
    TITLE "9:cjc040_6198"
    INDEX 01 02:12:15
  TRACK 108 AUDIO
    TITLE "0:"
    INDEX 01 02:13:30
